<svg id="Layer_1" data-name="Layer 1" xmlns="http://www.w3.org/2000/svg" viewBox="0 0 218.82 275.77"><defs><style>.cls-1{fill:#fff;}.cls-2{fill:#9346f5;}</style></defs><path class="cls-1" d="M380.46,217c-17.55-35.91-36.35-38.42-53.85-29.86a36.09,36.09,0,0,0-13.19,10.29H266.58a36,36,0,0,0-13.18-10.29c-17.5-8.56-36.31-6.05-53.85,29.86s-27.21,91.63-9.71,100.19c12.17,5.94,34.23-12.47,52.46-36.29h95.4c18.22,23.82,40.29,42.23,52.45,36.29C407.67,308.6,398,252.88,380.46,217ZM262.29,239.41a2.66,2.66,0,0,1-2.68,2.63H246.76v13.17a2.65,2.65,0,0,1-2.68,2.62H235a2.66,2.66,0,0,1-2.68-2.62V242H219.45a2.66,2.66,0,0,1-2.68-2.63V230.5a2.66,2.66,0,0,1,2.68-2.63H232.3V214.7a2.66,2.66,0,0,1,2.68-2.63h9.1a2.66,2.66,0,0,1,2.68,2.63v13.17h12.85a2.67,2.67,0,0,1,2.69,2.63v8.91ZM345.39,217a8.2,8.2,0,1,1-8.2-8.2A8.2,8.2,0,0,1,345.39,217Zm-25.1,25.11a8.2,8.2,0,1,1,8.19-8.21A8.2,8.2,0,0,1,320.29,242.09Zm33.84,0a8.2,8.2,0,1,1,8.19-8.21A8.2,8.2,0,0,1,354.13,242.09ZM337.19,259a8.2,8.2,0,1,1,8.2-8.2A8.2,8.2,0,0,1,337.19,259Z" transform="translate(-180.59 -110.19)"/><path class="cls-2" d="M202.41,162c-12.09,0-17.71-4.68-17.71-14.69V124.88c0-10,5.62-14.69,17.71-14.69h18c1.8,0,2.59.79,2.59,2.59v8.72c0,1.8-.79,2.59-2.59,2.59h-15c-3,0-4.39,1.15-4.39,3.6V144.9c0,2.45,1.08,3.53,3.31,3.53h7V137.19c0-1.8.8-2.59,2.6-2.59H225.1c1.8,0,2.59.79,2.59,2.59v22.25c0,1.8-.79,2.6-2.59,2.6Z" transform="translate(-180.59 -110.19)"/><path class="cls-2" d="M250.37,162H239.78c-1.8,0-2.59-.8-2.59-2.6v-19c0-2.88.86-6.48,2.81-11.52l6.26-16.34c.58-1.66,1.73-2.38,3.67-2.38H269.3a3.34,3.34,0,0,1,3.6,2.38l6.27,16.34c1.94,5,2.81,8.64,2.81,11.52v19c0,1.8-.8,2.6-2.6,2.6H268.51c-1.94,0-2.81-.8-2.81-2.6V149.36H253v10.08C253,161.24,252.17,162,250.37,162Zm3.31-25.78H265l-3.38-10.95c-.36-.86-.79-1.22-1.37-1.22h-1.8c-.58,0-1,.36-1.37,1.22Z" transform="translate(-180.59 -110.19)"/><path class="cls-2" d="M295.22,162c-1.8,0-2.59-.8-2.59-2.6V112.78c0-1.8.79-2.59,2.59-2.59h11.59a3.4,3.4,0,0,1,3.31,2.16l6.49,11.74c.5.86.72,1.22,1.29,1.22h.65c.58,0,.79-.36,1.3-1.22l6.4-11.74a3.42,3.42,0,0,1,3.32-2.16h11.66c1.8,0,2.59.79,2.59,2.59v46.66c0,1.8-.79,2.6-2.59,2.6H330.14c-1.87,0-2.59-.8-2.59-2.6V134.1L323.3,142a3.78,3.78,0,0,1-3.81,2.3h-2.88a3.78,3.78,0,0,1-3.82-2.3l-4.25-7.85v25.34c0,1.8-.79,2.6-2.59,2.6Z" transform="translate(-180.59 -110.19)"/><path class="cls-2" d="M358.15,162c-1.8,0-2.59-.8-2.59-2.6V112.78c0-1.8.79-2.59,2.59-2.59h33.41c1.8,0,2.59.79,2.59,2.59v8.43c0,1.8-.79,2.59-2.59,2.59H371.69v5.54h14c1.8,0,2.59.8,2.59,2.6v7.7c0,1.8-.79,2.59-2.59,2.59h-14v6.2h19.87c1.8,0,2.59.79,2.59,2.59v8.42c0,1.8-.79,2.6-2.59,2.6Z" transform="translate(-180.59 -110.19)"/><path class="cls-2" d="M211.31,384.88c-1.8,0-2.6-.8-2.6-2.59V335.62c0-1.8.8-2.59,2.6-2.59h7.48a4.9,4.9,0,0,1,4.25,2l14,16V335.62c0-1.8.79-2.59,2.59-2.59h10.8c1.8,0,2.6.79,2.6,2.59v46.67c0,1.79-.8,2.59-2.6,2.59H239.6c-1.8,0-2.59-.8-2.59-2.59v-8.86L224.7,358.52v23.77c0,1.79-.79,2.59-2.59,2.59Z" transform="translate(-180.59 -110.19)"/><path class="cls-2" d="M286.33,386c-18,0-22.39-5.91-22.39-14.69V346.71c0-8.78,4.39-14.76,22.39-14.76s22.32,6,22.32,14.76v24.56C308.65,380.05,304.33,386,286.33,386Zm0-13.9c5.26,0,6.05-1.44,6.05-3.38V349.31c0-1.88-.79-3.32-6.05-3.32s-6.05,1.44-6.05,3.32v19.37C280.28,370.62,281.15,372.06,286.33,372.06Z" transform="translate(-180.59 -110.19)"/><path class="cls-2" d="M367.55,333c1.8,0,2.59.79,2.59,2.59v27.94a22.34,22.34,0,0,1-1.3,8.93l-3.6,9.8c-.5,1.43-1.36,2.59-2.88,2.59h-9.57a3.12,3.12,0,0,1-3.32-2.16L346.16,371c-.29-.94-.72-1.22-1.29-1.22h-.65c-.58,0-1,.28-1.3,1.22l-3.38,11.74a2.89,2.89,0,0,1-3,2.16H327a3.35,3.35,0,0,1-3.17-2.59l-3.6-9.94a22.34,22.34,0,0,1-1.3-8.93v-27.8c0-1.8.8-2.59,2.6-2.59h11.09c1.8,0,2.59.79,2.59,2.59v26.5l4.17-9.07a3.67,3.67,0,0,1,3.82-2.23h3a3.66,3.66,0,0,1,3.82,2.23l4.18,9.07v-26.5c0-1.8.72-2.59,2.59-2.59Z" transform="translate(-180.59 -110.19)"/></svg>