<?xml version="1.0" standalone="no"?>
<!DOCTYPE svg PUBLIC "-//W3C//DTD SVG 20010904//EN"
 "http://www.w3.org/TR/2001/REC-SVG-20010904/DTD/svg10.dtd">
<svg version="1.0" xmlns="http://www.w3.org/2000/svg"
 width="1104.000000pt" height="1104.000000pt" viewBox="0 0 1104.000000 1104.000000"
 preserveAspectRatio="xMidYMid meet">
<metadata>
Created by potrace 1.11, written by Peter Selinger 2001-2013
</metadata>
<g transform="translate(0.000000,1104.000000) scale(0.100000,-0.100000)"
fill="#000000" stroke="none">
<path d="M1858 11035 c-1 -2 -23 -6 -48 -8 -25 -3 -60 -10 -78 -16 -18 -5 -35
-10 -37 -10 -61 -6 -189 -76 -248 -135 -73 -74 -119 -175 -134 -296 -9 -70 -9
-1069 0 -1135 23 -181 116 -315 268 -388 41 -20 86 -39 100 -41 13 -2 24 -5
24 -6 0 -2 37 -10 63 -12 12 -1 22 -5 22 -8 0 -3 15 -6 33 -7 67 -4 1113 -9
1137 -5 14 2 34 16 45 30 19 26 20 44 20 497 1 259 -1 483 -5 499 -3 16 -18
38 -32 49 -26 19 -42 21 -293 21 l-265 0 -30 -29 -30 -29 0 -248 0 -248 -160
0 c-180 0 -208 7 -236 61 -9 18 -14 42 -11 56 2 13 2 25 -2 27 -7 5 -5 690 2
730 9 44 47 80 100 93 12 3 175 6 362 7 187 1 350 5 363 10 29 10 46 41 48 91
1 22 3 42 4 45 1 3 1 10 0 15 -8 34 -3 226 5 229 6 3 6 5 -1 5 -6 1 -9 20 -8
49 2 38 -2 54 -21 77 l-23 30 -465 2 c-256 1 -467 0 -469 -2z"/>
<path d="M3829 11020 c-32 -17 -58 -52 -65 -88 -1 -8 -9 -28 -17 -45 -8 -18
-30 -75 -50 -127 -19 -52 -38 -104 -42 -115 -5 -11 -7 -23 -7 -27 1 -5 -2 -8
-8 -8 -6 0 -9 -3 -8 -7 3 -8 -13 -52 -33 -98 -5 -11 -38 -101 -75 -200 -71
-193 -99 -290 -110 -382 -10 -81 -11 -842 -1 -891 12 -63 24 -66 295 -67 248
-1 281 3 310 31 17 18 18 20 22 429 l0 50 237 -2 c131 -1 245 -2 254 -2 15 -1
17 -22 17 -188 0 -289 -3 -268 33 -294 31 -22 40 -23 273 -23 276 -1 283 -1
316 24 19 14 24 27 24 64 1 25 4 46 8 46 5 0 4 29 -2 38 -5 7 -3 49 3 59 4 6
4 14 -1 17 -4 2 -6 28 -5 58 4 69 5 112 3 118 -6 18 -5 50 2 50 5 0 6 6 2 12
-11 17 -11 77 -2 106 6 16 4 21 -3 16 -8 -5 -8 -1 0 14 6 12 8 23 3 26 -9 5
-8 47 1 63 4 7 4 14 -1 17 -6 4 -6 39 0 121 2 32 -16 151 -33 220 -26 100 -25
97 -32 115 -3 8 -19 53 -36 100 -17 47 -49 132 -71 190 -23 58 -46 118 -50
133 -5 16 -14 35 -21 43 -6 8 -9 14 -6 14 4 0 -4 26 -17 58 -51 123 -99 248
-99 260 0 16 -46 66 -74 81 -15 8 -150 11 -460 11 -409 -1 -440 -2 -474 -20z
m523 -539 c14 -2 36 -56 73 -176 20 -66 38 -127 40 -135 2 -8 15 -48 28 -88
24 -68 24 -73 8 -82 -12 -6 -22 -5 -29 2 -7 7 -12 8 -12 2 0 -10 -239 -10
-265 0 -9 3 -14 2 -11 -2 3 -5 -61 -7 -108 -3 -4 1 -5 11 -2 24 4 12 8 29 10
37 3 8 11 35 19 60 8 25 30 92 47 150 64 212 68 217 142 214 29 -1 56 -3 60
-3z"/>
<path d="M5670 11027 c-14 -7 -30 -26 -35 -43 -7 -20 -10 -374 -10 -998 l0
-966 27 -27 27 -27 265 0 c261 -1 265 -1 289 22 13 12 24 28 25 35 1 6 3 245
4 530 1 284 2 517 4 517 1 0 46 -80 100 -179 119 -218 119 -219 284 -216 106
1 134 9 170 45 17 17 97 160 167 298 15 28 30 52 33 52 3 0 4 -233 4 -517 -1
-337 2 -525 9 -538 26 -50 24 -49 297 -50 141 -1 270 3 286 7 61 16 58 -31 59
1030 0 897 -1 973 -17 999 -11 18 -29 30 -50 34 -18 3 -153 5 -300 3 l-268 -3
-29 -30 c-16 -16 -46 -61 -67 -99 -20 -39 -50 -93 -65 -120 -15 -28 -43 -80
-62 -116 -19 -36 -51 -94 -71 -128 -20 -35 -36 -66 -36 -69 0 -14 -35 -36 -60
-38 -30 -3 -49 19 -107 125 -64 116 -89 161 -116 210 -37 68 -66 121 -100 180
-48 86 -41 85 -355 88 -210 2 -283 -1 -302 -11z"/>
<path d="M8177 11021 c-10 -10 -21 -31 -25 -47 -5 -16 -8 -461 -7 -989 1
-1051 -2 -997 60 -1012 16 -3 338 -7 715 -8 721 -2 735 -1 759 43 6 11 10 105
10 232 l0 212 -29 29 -28 29 -422 0 -421 0 3 123 3 122 285 2 c157 2 296 4
309 5 13 2 33 16 45 31 20 27 21 40 20 228 l0 200 -26 26 -26 26 -306 0 -307
1 3 111 3 110 420 0 421 0 24 23 c25 23 25 24 28 242 2 219 2 219 -22 247
l-24 28 -724 2 c-684 2 -724 1 -741 -16z"/>
<path d="M3367 8124 c-1 -2 -34 -5 -73 -8 -141 -11 -336 -83 -479 -176 -83
-54 -81 -52 -169 -126 -99 -82 -168 -154 -306 -321 -33 -39 -140 -194 -140
-202 0 -4 -8 -15 -17 -24 -10 -9 -29 -37 -43 -64 -14 -26 -27 -50 -30 -53 -32
-30 -233 -422 -330 -645 -36 -82 -38 -87 -74 -176 -71 -173 -237 -643 -251
-709 -2 -8 -8 -26 -13 -40 -5 -14 -10 -28 -10 -33 0 -4 -8 -33 -18 -65 -9 -31
-18 -64 -19 -72 -1 -8 -10 -42 -19 -75 -19 -68 -19 -66 -41 -155 -9 -36 -18
-76 -21 -90 -3 -14 -12 -52 -21 -85 -8 -33 -16 -69 -18 -80 -4 -31 -15 -89
-20 -105 -2 -8 -7 -31 -10 -50 -3 -19 -10 -57 -15 -85 -6 -27 -12 -65 -15 -83
-2 -18 -6 -45 -9 -60 -3 -15 -8 -47 -11 -72 -3 -25 -7 -56 -10 -70 -4 -22 -11
-78 -21 -180 -19 -194 -26 -619 -11 -727 4 -29 10 -77 13 -105 3 -29 8 -57 11
-61 2 -4 7 -24 9 -45 3 -20 12 -61 21 -92 9 -30 18 -62 19 -70 5 -25 91 -193
116 -224 69 -87 165 -152 262 -175 63 -15 191 -12 259 6 28 8 62 16 75 19 43
9 227 87 242 104 3 3 23 14 45 25 40 20 153 92 190 121 11 8 32 23 48 32 15 9
27 20 27 24 0 4 6 8 14 8 8 0 16 3 18 8 2 4 38 35 81 70 113 92 111 90 200
172 170 157 363 359 522 545 33 38 65 75 70 81 6 6 24 28 40 49 17 21 35 43
40 49 6 6 33 40 60 76 28 36 56 72 64 80 13 13 234 15 1920 16 1334 0 1909 -3
1917 -10 5 -6 34 -42 64 -81 29 -38 56 -72 59 -75 4 -3 38 -43 76 -90 38 -47
74 -90 80 -97 5 -6 37 -42 70 -79 145 -165 326 -349 470 -479 49 -44 99 -90
112 -102 13 -13 28 -23 33 -23 6 0 10 -4 10 -8 0 -5 36 -35 80 -68 44 -32 80
-62 80 -66 0 -5 4 -8 10 -8 5 0 38 -20 74 -46 110 -76 268 -161 391 -209 133
-52 316 -68 417 -37 132 42 225 128 302 282 35 69 80 204 91 274 3 17 10 56
16 86 18 100 24 203 24 405 0 221 -8 365 -29 540 -4 28 -9 70 -12 95 -6 50
-11 82 -19 120 -4 23 -14 82 -21 135 -1 11 -3 20 -4 20 -1 0 -3 14 -5 30 -4
33 -10 66 -25 135 -20 85 -22 95 -25 117 -2 11 -6 30 -10 42 -3 11 -8 33 -11
48 -3 16 -12 55 -21 88 -15 60 -19 75 -28 116 -2 12 -12 47 -21 78 -10 31 -19
65 -21 75 -2 11 -11 44 -20 75 -9 31 -17 58 -18 61 -1 3 -9 32 -19 65 -10 33
-19 65 -21 70 -1 6 -5 19 -9 30 -32 84 -35 92 -36 108 0 1 -12 34 -25 72 -14
39 -28 81 -31 95 -3 13 -10 30 -16 37 -6 7 -7 13 -2 13 4 0 3 5 -4 12 -7 7
-12 17 -12 24 0 6 -8 29 -17 50 -9 22 -18 47 -20 56 -1 10 -12 39 -24 65 -35
79 -38 86 -58 138 -10 28 -35 85 -55 128 -20 43 -36 80 -36 83 0 17 -191 390
-254 494 -15 25 -29 53 -33 63 -3 9 -9 17 -14 17 -5 0 -9 5 -9 10 0 16 -148
233 -220 325 -104 130 -234 265 -322 333 -27 20 -48 40 -48 44 0 4 -4 8 -10 8
-5 0 -47 24 -92 54 -142 91 -327 161 -458 171 -19 1 -35 4 -35 5 0 4 -190 6
-199 1 -5 -2 -28 -6 -50 -7 -34 -3 -91 -15 -231 -49 -42 -10 -187 -70 -285
-118 -56 -27 -174 -96 -205 -119 -111 -82 -237 -200 -278 -258 l-16 -23 -941
0 -940 0 -22 29 c-68 89 -309 294 -345 294 -7 0 -13 5 -13 10 0 6 -6 10 -14
10 -8 0 -16 4 -18 8 -2 7 -168 92 -188 97 -3 1 -18 7 -35 14 -28 11 -104 40
-150 56 -11 4 -27 9 -35 10 -8 1 -45 9 -81 18 -89 21 -300 42 -312 31z m4157
-1055 c254 -94 286 -436 55 -584 -102 -66 -270 -60 -360 12 -35 28 -89 87 -89
97 0 5 -7 17 -14 25 -20 22 -30 73 -30 157 0 57 5 82 27 126 76 155 253 227
411 167z m-3818 -114 c17 -3 42 -17 55 -31 24 -26 24 -26 26 -277 1 -139 3
-267 3 -284 l0 -33 273 0 273 0 34 -29 c34 -28 35 -31 40 -117 3 -49 3 -151 0
-226 -5 -137 -5 -138 -35 -165 l-30 -28 -272 -1 c-150 0 -275 -3 -278 -6 -3
-3 -6 -130 -6 -284 l-1 -278 -34 -34 -33 -33 -225 3 -226 3 -27 28 -28 27 -3
285 c-2 157 -6 285 -10 286 -4 1 -126 2 -272 3 -282 2 -293 3 -324 52 -15 22
-18 53 -18 232 1 187 2 208 20 231 36 49 49 51 334 51 l267 0 3 288 c2 240 6
291 18 303 16 16 62 36 94 41 32 5 349 0 382 -7z m3162 -571 c64 -28 130 -93
162 -161 17 -35 24 -69 26 -127 1 -44 -2 -87 -6 -95 -10 -19 -23 -53 -24 -63
-1 -4 -9 -17 -18 -28 -10 -11 -18 -22 -18 -25 0 -9 -40 -45 -50 -45 -5 0 -10
-4 -10 -9 0 -6 -24 -22 -52 -37 -46 -23 -66 -27 -144 -28 -77 -1 -97 3 -137
23 -74 38 -124 87 -157 154 -41 85 -46 179 -12 267 5 14 10 28 11 33 1 7 19
28 72 84 83 86 235 111 357 57z m1317 15 c5 -5 15 -9 21 -9 26 0 101 -56 137
-101 89 -113 93 -272 9 -393 -28 -41 -111 -107 -124 -99 -5 2 -8 0 -8 -5 0 -9
-50 -23 -96 -27 -11 -1 -26 -5 -32 -9 -7 -4 -12 -4 -12 1 0 4 -17 8 -38 9 -89
2 -198 79 -247 174 -19 38 -42 130 -38 150 1 3 4 24 8 48 19 132 118 237 249
267 55 13 155 9 171 -6z m-654 -682 c167 -73 247 -262 181 -427 -109 -272
-492 -272 -609 0 -19 45 -24 171 -9 213 19 49 39 91 53 105 7 7 18 21 25 30
24 31 100 74 168 95 31 10 156 -1 191 -16z"/>
<path d="M5230 2162 c0 -4 -21 -8 -48 -8 -174 -5 -433 -74 -490 -130 -7 -8
-16 -14 -20 -14 -14 0 -78 -66 -108 -110 -29 -43 -56 -100 -56 -117 0 -4 -4
-15 -8 -23 -19 -36 -23 -157 -22 -685 0 -646 1 -653 53 -757 28 -58 36 -70 76
-113 72 -76 187 -133 348 -170 20 -5 42 -8 145 -22 98 -14 595 -8 595 7 0 1
18 3 40 5 22 2 72 13 110 25 39 11 75 22 80 23 33 10 115 51 115 58 0 5 6 9
14 9 13 0 96 75 126 115 27 35 68 141 76 196 10 68 11 1200 1 1254 -23 130
-82 228 -184 306 -23 19 -144 78 -171 84 -9 2 -44 12 -77 21 -33 9 -73 18 -90
19 -16 2 -43 6 -60 9 -16 4 -59 7 -96 9 -36 2 -70 7 -77 11 -7 4 -12 3 -12 -3
0 -7 -9 -7 -22 -3 -24 9 -100 7 -124 -2 -8 -3 -14 -2 -14 2 0 4 -11 7 -25 7
-14 0 -25 -3 -25 -7 0 -4 -11 -3 -25 2 -14 5 -25 6 -25 2z m310 -584 c19 -8
44 -25 55 -38 19 -21 20 -36 20 -455 0 -472 0 -471 -58 -500 -16 -8 -44 -17
-63 -21 -41 -8 -193 -11 -200 -5 -2 3 -18 6 -34 7 -45 4 -99 34 -115 65 -12
23 -15 101 -14 451 1 371 3 426 17 450 14 25 43 40 112 61 35 11 246 -1 280
-15z"/>
<path d="M2627 2123 c-3 -3 -75 -6 -160 -7 -170 -1 -183 -6 -196 -69 -4 -18
-6 -460 -6 -983 1 -1003 0 -990 44 -1010 25 -11 512 -12 544 -2 15 6 33 20 39
32 9 15 12 151 13 506 0 267 3 487 7 490 3 3 29 -24 59 -60 30 -36 58 -70 64
-76 5 -7 21 -26 35 -44 14 -18 40 -48 58 -67 17 -19 32 -38 32 -43 0 -5 3 -10
8 -12 4 -1 25 -25 47 -53 22 -27 44 -55 50 -61 5 -7 17 -20 25 -30 8 -11 36
-45 62 -76 l46 -58 0 -194 c0 -123 5 -202 12 -215 24 -45 49 -49 322 -47 254
1 258 1 280 24 l23 23 2 989 c3 989 3 990 -18 1009 -28 26 -59 30 -247 30 -89
0 -166 2 -171 6 -5 3 -12 1 -16 -4 -3 -5 -15 -8 -28 -5 -12 3 -45 2 -74 -1
-46 -6 -53 -9 -68 -41 -9 -19 -16 -52 -15 -72 1 -20 1 -40 0 -44 -2 -11 -2
-116 1 -125 1 -5 1 -12 0 -17 -1 -5 -2 -101 -2 -212 l0 -203 -37 42 c-20 23
-50 57 -67 76 -16 19 -43 48 -58 65 -15 16 -40 45 -55 64 -15 19 -38 46 -52
61 -14 15 -51 56 -82 91 -61 69 -74 85 -146 169 -104 120 -129 137 -206 147
-23 3 -46 7 -53 9 -6 2 -13 1 -16 -2z"/>
<path d="M6734 2113 c-33 -6 -56 -57 -58 -131 -1 -37 1 -79 5 -94 4 -16 5 -28
1 -28 -4 0 -7 -36 -7 -80 0 -44 3 -80 7 -80 4 0 5 -7 1 -16 -9 -24 -10 -87 -2
-110 4 -12 5 -25 1 -28 -8 -9 -9 -166 0 -166 4 0 5 -7 1 -16 -9 -24 -10 -86
-2 -116 4 -16 5 -28 1 -28 -4 0 -7 -36 -7 -80 0 -44 3 -80 7 -80 4 0 4 -10 0
-22 -4 -13 -6 -36 -5 -53 4 -41 4 -42 0 -105 -2 -30 0 -65 4 -77 5 -13 4 -25
-2 -28 -5 -4 -6 -11 -3 -17 4 -6 9 -29 12 -52 5 -48 46 -176 132 -411 97 -266
72 -250 365 -251 160 -1 229 2 252 11 32 14 62 49 68 82 2 10 4 19 5 21 2 1 3
5 4 10 12 44 28 100 33 112 3 8 8 24 10 35 6 28 9 38 16 55 3 8 20 67 37 130
33 120 52 150 96 150 37 0 59 -34 88 -138 29 -106 28 -103 51 -182 9 -30 18
-62 20 -71 14 -63 48 -156 63 -172 36 -40 59 -43 292 -42 161 1 232 5 248 14
26 14 62 68 62 93 0 9 3 18 8 20 4 1 20 41 36 88 15 47 34 99 42 115 27 62 93
272 103 329 7 36 11 297 11 701 0 592 -2 646 -18 674 -12 22 -27 32 -52 36
-56 9 -492 3 -522 -7 -23 -8 -36 -25 -44 -60 -1 -5 -2 -249 -3 -544 0 -294 -5
-533 -9 -530 -5 3 -14 23 -22 45 -7 23 -17 41 -22 41 -4 0 -7 3 -6 8 3 16
-116 269 -140 295 -28 32 -62 40 -172 42 -157 3 -186 -11 -236 -118 -16 -34
-31 -64 -34 -67 -3 -3 -6 -9 -7 -15 -1 -5 -24 -57 -51 -115 -27 -58 -51 -112
-55 -120 -3 -8 -6 229 -7 528 -2 298 -3 545 -4 550 -16 67 -35 71 -326 69
-135 0 -254 -3 -266 -4z"/>
</g>
</svg>
